<mxfile host="app.diagrams.net" agent="Mozilla/5.0 (Windows NT 10.0; Win64; x64) AppleWebKit/537.36 (KHTML, like Gecko) Chrome/130.0.0.0 Safari/537.36 Edg/130.0.0.0" version="24.8.0">
  <diagram name="Page-1" id="4CE9I4o164JeY4tT6-am">
    <mxGraphModel dx="2226" dy="807" grid="0" gridSize="10" guides="1" tooltips="1" connect="1" arrows="1" fold="1" page="0" pageScale="1" pageWidth="827" pageHeight="1169" math="0" shadow="0">
      <root>
        <mxCell id="0" />
        <mxCell id="1" parent="0" />
        <mxCell id="k4nbTpC5pqT-Kh_ewn54-109" value="Customers" style="swimlane;fontStyle=1;align=center;verticalAlign=top;childLayout=stackLayout;horizontal=1;startSize=26;horizontalStack=0;resizeParent=1;resizeParentMax=0;resizeLast=0;collapsible=1;marginBottom=0;whiteSpace=wrap;html=1;" vertex="1" parent="1">
          <mxGeometry x="-297" y="637.6" width="160" height="193" as="geometry" />
        </mxCell>
        <mxCell id="k4nbTpC5pqT-Kh_ewn54-110" value="+ name: string" style="text;strokeColor=none;fillColor=none;align=left;verticalAlign=top;spacingLeft=4;spacingRight=4;overflow=hidden;rotatable=0;points=[[0,0.5],[1,0.5]];portConstraint=eastwest;whiteSpace=wrap;html=1;" vertex="1" parent="k4nbTpC5pqT-Kh_ewn54-109">
          <mxGeometry y="26" width="160" height="26" as="geometry" />
        </mxCell>
        <mxCell id="k4nbTpC5pqT-Kh_ewn54-166" value="+ firstName: string" style="text;strokeColor=none;fillColor=none;align=left;verticalAlign=top;spacingLeft=4;spacingRight=4;overflow=hidden;rotatable=0;points=[[0,0.5],[1,0.5]];portConstraint=eastwest;whiteSpace=wrap;html=1;" vertex="1" parent="k4nbTpC5pqT-Kh_ewn54-109">
          <mxGeometry y="52" width="160" height="28" as="geometry" />
        </mxCell>
        <mxCell id="k4nbTpC5pqT-Kh_ewn54-111" value="+ email: string" style="text;strokeColor=none;fillColor=none;align=left;verticalAlign=top;spacingLeft=4;spacingRight=4;overflow=hidden;rotatable=0;points=[[0,0.5],[1,0.5]];portConstraint=eastwest;whiteSpace=wrap;html=1;" vertex="1" parent="k4nbTpC5pqT-Kh_ewn54-109">
          <mxGeometry y="80" width="160" height="29" as="geometry" />
        </mxCell>
        <mxCell id="k4nbTpC5pqT-Kh_ewn54-168" value="+ phone: string" style="text;strokeColor=none;fillColor=none;align=left;verticalAlign=top;spacingLeft=4;spacingRight=4;overflow=hidden;rotatable=0;points=[[0,0.5],[1,0.5]];portConstraint=eastwest;whiteSpace=wrap;html=1;" vertex="1" parent="k4nbTpC5pqT-Kh_ewn54-109">
          <mxGeometry y="109" width="160" height="29" as="geometry" />
        </mxCell>
        <mxCell id="k4nbTpC5pqT-Kh_ewn54-169" value="+ address: string" style="text;strokeColor=none;fillColor=none;align=left;verticalAlign=top;spacingLeft=4;spacingRight=4;overflow=hidden;rotatable=0;points=[[0,0.5],[1,0.5]];portConstraint=eastwest;whiteSpace=wrap;html=1;" vertex="1" parent="k4nbTpC5pqT-Kh_ewn54-109">
          <mxGeometry y="138" width="160" height="27" as="geometry" />
        </mxCell>
        <mxCell id="k4nbTpC5pqT-Kh_ewn54-167" value="+ idUser: int" style="text;strokeColor=none;fillColor=none;align=left;verticalAlign=top;spacingLeft=4;spacingRight=4;overflow=hidden;rotatable=0;points=[[0,0.5],[1,0.5]];portConstraint=eastwest;whiteSpace=wrap;html=1;" vertex="1" parent="k4nbTpC5pqT-Kh_ewn54-109">
          <mxGeometry y="165" width="160" height="28" as="geometry" />
        </mxCell>
        <mxCell id="k4nbTpC5pqT-Kh_ewn54-112" value="&lt;b&gt;Formations&lt;/b&gt;" style="swimlane;fontStyle=0;childLayout=stackLayout;horizontal=1;startSize=26;fillColor=none;horizontalStack=0;resizeParent=1;resizeParentMax=0;resizeLast=0;collapsible=1;marginBottom=0;whiteSpace=wrap;html=1;" vertex="1" parent="1">
          <mxGeometry x="-67" y="637.5999755859375" width="140" height="186" as="geometry" />
        </mxCell>
        <mxCell id="k4nbTpC5pqT-Kh_ewn54-113" value="+ name: string" style="text;strokeColor=none;fillColor=none;align=left;verticalAlign=top;spacingLeft=4;spacingRight=4;overflow=hidden;rotatable=0;points=[[0,0.5],[1,0.5]];portConstraint=eastwest;whiteSpace=wrap;html=1;" vertex="1" parent="k4nbTpC5pqT-Kh_ewn54-112">
          <mxGeometry y="26" width="140" height="26" as="geometry" />
        </mxCell>
        <mxCell id="k4nbTpC5pqT-Kh_ewn54-114" value="+ description: string" style="text;strokeColor=none;fillColor=none;align=left;verticalAlign=top;spacingLeft=4;spacingRight=4;overflow=hidden;rotatable=0;points=[[0,0.5],[1,0.5]];portConstraint=eastwest;whiteSpace=wrap;html=1;" vertex="1" parent="k4nbTpC5pqT-Kh_ewn54-112">
          <mxGeometry y="52" width="140" height="26" as="geometry" />
        </mxCell>
        <mxCell id="k4nbTpC5pqT-Kh_ewn54-115" value="+ duration: int(jour)" style="text;strokeColor=none;fillColor=none;align=left;verticalAlign=top;spacingLeft=4;spacingRight=4;overflow=hidden;rotatable=0;points=[[0,0.5],[1,0.5]];portConstraint=eastwest;whiteSpace=wrap;html=1;" vertex="1" parent="k4nbTpC5pqT-Kh_ewn54-112">
          <mxGeometry y="78" width="140" height="26" as="geometry" />
        </mxCell>
        <mxCell id="k4nbTpC5pqT-Kh_ewn54-116" value="+ isRemote: boolean" style="text;strokeColor=none;fillColor=none;align=left;verticalAlign=top;spacingLeft=4;spacingRight=4;overflow=hidden;rotatable=0;points=[[0,0.5],[1,0.5]];portConstraint=eastwest;whiteSpace=wrap;html=1;" vertex="1" parent="k4nbTpC5pqT-Kh_ewn54-112">
          <mxGeometry y="104" width="140" height="26" as="geometry" />
        </mxCell>
        <mxCell id="k4nbTpC5pqT-Kh_ewn54-117" value="+ price: double" style="text;strokeColor=none;fillColor=none;align=left;verticalAlign=top;spacingLeft=4;spacingRight=4;overflow=hidden;rotatable=0;points=[[0,0.5],[1,0.5]];portConstraint=eastwest;whiteSpace=wrap;html=1;" vertex="1" parent="k4nbTpC5pqT-Kh_ewn54-112">
          <mxGeometry y="130" width="140" height="30" as="geometry" />
        </mxCell>
        <mxCell id="k4nbTpC5pqT-Kh_ewn54-118" value="+ idCategory: int" style="text;strokeColor=none;fillColor=none;align=left;verticalAlign=top;spacingLeft=4;spacingRight=4;overflow=hidden;rotatable=0;points=[[0,0.5],[1,0.5]];portConstraint=eastwest;whiteSpace=wrap;html=1;" vertex="1" parent="k4nbTpC5pqT-Kh_ewn54-112">
          <mxGeometry y="160" width="140" height="26" as="geometry" />
        </mxCell>
        <mxCell id="k4nbTpC5pqT-Kh_ewn54-119" value="&lt;b&gt;Categories&lt;/b&gt;" style="swimlane;fontStyle=0;childLayout=stackLayout;horizontal=1;startSize=26;fillColor=none;horizontalStack=0;resizeParent=1;resizeParentMax=0;resizeLast=0;collapsible=1;marginBottom=0;whiteSpace=wrap;html=1;" vertex="1" parent="1">
          <mxGeometry x="163" y="637.5999755859375" width="140" height="140" as="geometry" />
        </mxCell>
        <mxCell id="k4nbTpC5pqT-Kh_ewn54-120" value="+ devWeb: string" style="text;strokeColor=none;fillColor=none;align=left;verticalAlign=top;spacingLeft=4;spacingRight=4;overflow=hidden;rotatable=0;points=[[0,0.5],[1,0.5]];portConstraint=eastwest;whiteSpace=wrap;html=1;" vertex="1" parent="k4nbTpC5pqT-Kh_ewn54-119">
          <mxGeometry y="26" width="140" height="26" as="geometry" />
        </mxCell>
        <mxCell id="k4nbTpC5pqT-Kh_ewn54-121" value="+ Cms: string" style="text;strokeColor=none;fillColor=none;align=left;verticalAlign=top;spacingLeft=4;spacingRight=4;overflow=hidden;rotatable=0;points=[[0,0.5],[1,0.5]];portConstraint=eastwest;whiteSpace=wrap;html=1;" vertex="1" parent="k4nbTpC5pqT-Kh_ewn54-119">
          <mxGeometry y="52" width="140" height="26" as="geometry" />
        </mxCell>
        <mxCell id="k4nbTpC5pqT-Kh_ewn54-122" value="+ CyberSecurity: string" style="text;strokeColor=none;fillColor=none;align=left;verticalAlign=top;spacingLeft=4;spacingRight=4;overflow=hidden;rotatable=0;points=[[0,0.5],[1,0.5]];portConstraint=eastwest;whiteSpace=wrap;html=1;" vertex="1" parent="k4nbTpC5pqT-Kh_ewn54-119">
          <mxGeometry y="78" width="140" height="26" as="geometry" />
        </mxCell>
        <mxCell id="k4nbTpC5pqT-Kh_ewn54-123" value="+ IA: string" style="text;strokeColor=none;fillColor=none;align=left;verticalAlign=top;spacingLeft=4;spacingRight=4;overflow=hidden;rotatable=0;points=[[0,0.5],[1,0.5]];portConstraint=eastwest;whiteSpace=wrap;html=1;" vertex="1" parent="k4nbTpC5pqT-Kh_ewn54-119">
          <mxGeometry y="104" width="140" height="36" as="geometry" />
        </mxCell>
        <mxCell id="k4nbTpC5pqT-Kh_ewn54-125" value="&lt;b&gt;Orders&lt;/b&gt;" style="swimlane;fontStyle=0;childLayout=stackLayout;horizontal=1;startSize=26;fillColor=none;horizontalStack=0;resizeParent=1;resizeParentMax=0;resizeLast=0;collapsible=1;marginBottom=0;whiteSpace=wrap;html=1;" vertex="1" parent="1">
          <mxGeometry x="-297" y="360.9999755859375" width="160" height="105" as="geometry" />
        </mxCell>
        <mxCell id="k4nbTpC5pqT-Kh_ewn54-126" value="+ idCustomer: int" style="text;strokeColor=none;fillColor=none;align=left;verticalAlign=top;spacingLeft=4;spacingRight=4;overflow=hidden;rotatable=0;points=[[0,0.5],[1,0.5]];portConstraint=eastwest;whiteSpace=wrap;html=1;" vertex="1" parent="k4nbTpC5pqT-Kh_ewn54-125">
          <mxGeometry y="26" width="160" height="26" as="geometry" />
        </mxCell>
        <mxCell id="k4nbTpC5pqT-Kh_ewn54-127" value="+ amount: float" style="text;strokeColor=none;fillColor=none;align=left;verticalAlign=top;spacingLeft=4;spacingRight=4;overflow=hidden;rotatable=0;points=[[0,0.5],[1,0.5]];portConstraint=eastwest;whiteSpace=wrap;html=1;" vertex="1" parent="k4nbTpC5pqT-Kh_ewn54-125">
          <mxGeometry y="52" width="160" height="27" as="geometry" />
        </mxCell>
        <mxCell id="k4nbTpC5pqT-Kh_ewn54-171" value="+ dateOrdert: Date" style="text;strokeColor=none;fillColor=none;align=left;verticalAlign=top;spacingLeft=4;spacingRight=4;overflow=hidden;rotatable=0;points=[[0,0.5],[1,0.5]];portConstraint=eastwest;whiteSpace=wrap;html=1;" vertex="1" parent="k4nbTpC5pqT-Kh_ewn54-125">
          <mxGeometry y="79" width="160" height="26" as="geometry" />
        </mxCell>
        <mxCell id="k4nbTpC5pqT-Kh_ewn54-128" value="&lt;b&gt;OrderItem&lt;/b&gt;" style="swimlane;fontStyle=0;childLayout=stackLayout;horizontal=1;startSize=26;fillColor=none;horizontalStack=0;resizeParent=1;resizeParentMax=0;resizeLast=0;collapsible=1;marginBottom=0;whiteSpace=wrap;html=1;" vertex="1" parent="1">
          <mxGeometry x="-67" y="360.9999755859375" width="140" height="106" as="geometry" />
        </mxCell>
        <mxCell id="k4nbTpC5pqT-Kh_ewn54-129" value="+ idOrder: int" style="text;strokeColor=none;fillColor=none;align=left;verticalAlign=top;spacingLeft=4;spacingRight=4;overflow=hidden;rotatable=0;points=[[0,0.5],[1,0.5]];portConstraint=eastwest;whiteSpace=wrap;html=1;" vertex="1" parent="k4nbTpC5pqT-Kh_ewn54-128">
          <mxGeometry y="26" width="140" height="26" as="geometry" />
        </mxCell>
        <mxCell id="k4nbTpC5pqT-Kh_ewn54-130" value="+ idFormation: int&lt;div&gt;&lt;br&gt;&lt;/div&gt;" style="text;strokeColor=none;fillColor=none;align=left;verticalAlign=top;spacingLeft=4;spacingRight=4;overflow=hidden;rotatable=0;points=[[0,0.5],[1,0.5]];portConstraint=eastwest;whiteSpace=wrap;html=1;" vertex="1" parent="k4nbTpC5pqT-Kh_ewn54-128">
          <mxGeometry y="52" width="140" height="28" as="geometry" />
        </mxCell>
        <mxCell id="k4nbTpC5pqT-Kh_ewn54-131" value="+ price: float&lt;div&gt;&lt;br&gt;&lt;/div&gt;" style="text;strokeColor=none;fillColor=none;align=left;verticalAlign=top;spacingLeft=4;spacingRight=4;overflow=hidden;rotatable=0;points=[[0,0.5],[1,0.5]];portConstraint=eastwest;whiteSpace=wrap;html=1;" vertex="1" parent="k4nbTpC5pqT-Kh_ewn54-128">
          <mxGeometry y="80" width="140" height="26" as="geometry" />
        </mxCell>
        <mxCell id="k4nbTpC5pqT-Kh_ewn54-132" value="" style="endArrow=none;html=1;rounded=0;exitX=0.5;exitY=0;exitDx=0;exitDy=0;entryX=0.493;entryY=0.931;entryDx=0;entryDy=0;entryPerimeter=0;" edge="1" parent="1" source="k4nbTpC5pqT-Kh_ewn54-112" target="k4nbTpC5pqT-Kh_ewn54-131">
          <mxGeometry width="50" height="50" relative="1" as="geometry">
            <mxPoint x="-27" y="597.5999755859375" as="sourcePoint" />
            <mxPoint x="13" y="567.5999755859375" as="targetPoint" />
          </mxGeometry>
        </mxCell>
        <mxCell id="k4nbTpC5pqT-Kh_ewn54-133" value="" style="endArrow=none;html=1;rounded=0;entryX=1;entryY=0.5;entryDx=0;entryDy=0;exitX=0;exitY=0.5;exitDx=0;exitDy=0;" edge="1" parent="1" source="k4nbTpC5pqT-Kh_ewn54-129" target="k4nbTpC5pqT-Kh_ewn54-126">
          <mxGeometry width="50" height="50" relative="1" as="geometry">
            <mxPoint x="-127" y="587.5999755859375" as="sourcePoint" />
            <mxPoint x="-77" y="537.5999755859375" as="targetPoint" />
          </mxGeometry>
        </mxCell>
        <mxCell id="k4nbTpC5pqT-Kh_ewn54-134" value="" style="endArrow=none;html=1;rounded=0;exitX=0.565;exitY=0.022;exitDx=0;exitDy=0;exitPerimeter=0;entryX=0.538;entryY=1.077;entryDx=0;entryDy=0;entryPerimeter=0;" edge="1" parent="1" source="k4nbTpC5pqT-Kh_ewn54-109" target="k4nbTpC5pqT-Kh_ewn54-171">
          <mxGeometry width="50" height="50" relative="1" as="geometry">
            <mxPoint x="-247" y="597.5999755859375" as="sourcePoint" />
            <mxPoint x="-222" y="530" as="targetPoint" />
          </mxGeometry>
        </mxCell>
        <mxCell id="k4nbTpC5pqT-Kh_ewn54-135" value="" style="endArrow=none;html=1;rounded=0;exitX=1;exitY=0.108;exitDx=0;exitDy=0;exitPerimeter=0;entryX=0.002;entryY=0.14;entryDx=0;entryDy=0;entryPerimeter=0;" edge="1" parent="1" source="k4nbTpC5pqT-Kh_ewn54-112" target="k4nbTpC5pqT-Kh_ewn54-119">
          <mxGeometry width="50" height="50" relative="1" as="geometry">
            <mxPoint x="82" y="667.5999755859375" as="sourcePoint" />
            <mxPoint x="132" y="617.5999755859375" as="targetPoint" />
          </mxGeometry>
        </mxCell>
        <mxCell id="k4nbTpC5pqT-Kh_ewn54-163" value="Users" style="swimlane;fontStyle=1;align=center;verticalAlign=top;childLayout=stackLayout;horizontal=1;startSize=26;horizontalStack=0;resizeParent=1;resizeParentMax=0;resizeLast=0;collapsible=1;marginBottom=0;whiteSpace=wrap;html=1;" vertex="1" parent="1">
          <mxGeometry x="-561" y="635.9999755859375" width="160" height="80" as="geometry" />
        </mxCell>
        <mxCell id="k4nbTpC5pqT-Kh_ewn54-164" value="+ login: string" style="text;strokeColor=none;fillColor=none;align=left;verticalAlign=top;spacingLeft=4;spacingRight=4;overflow=hidden;rotatable=0;points=[[0,0.5],[1,0.5]];portConstraint=eastwest;whiteSpace=wrap;html=1;" vertex="1" parent="k4nbTpC5pqT-Kh_ewn54-163">
          <mxGeometry y="26" width="160" height="26" as="geometry" />
        </mxCell>
        <mxCell id="k4nbTpC5pqT-Kh_ewn54-165" value="+ password: string" style="text;strokeColor=none;fillColor=none;align=left;verticalAlign=top;spacingLeft=4;spacingRight=4;overflow=hidden;rotatable=0;points=[[0,0.5],[1,0.5]];portConstraint=eastwest;whiteSpace=wrap;html=1;" vertex="1" parent="k4nbTpC5pqT-Kh_ewn54-163">
          <mxGeometry y="52" width="160" height="28" as="geometry" />
        </mxCell>
        <mxCell id="k4nbTpC5pqT-Kh_ewn54-170" value="" style="endArrow=none;html=1;rounded=0;entryX=1;entryY=0.25;entryDx=0;entryDy=0;exitX=0.006;exitY=0.095;exitDx=0;exitDy=0;exitPerimeter=0;" edge="1" parent="1" source="k4nbTpC5pqT-Kh_ewn54-109" target="k4nbTpC5pqT-Kh_ewn54-163">
          <mxGeometry width="50" height="50" relative="1" as="geometry">
            <mxPoint x="-309" y="662" as="sourcePoint" />
            <mxPoint x="-379" y="662" as="targetPoint" />
          </mxGeometry>
        </mxCell>
        <mxCell id="k4nbTpC5pqT-Kh_ewn54-173" value="1" style="text;strokeColor=none;fillColor=none;html=1;align=center;verticalAlign=middle;whiteSpace=wrap;rounded=0;fontSize=16;" vertex="1" parent="1">
          <mxGeometry x="-225" y="607.6" width="60" height="30" as="geometry" />
        </mxCell>
        <mxCell id="k4nbTpC5pqT-Kh_ewn54-174" value="&lt;font style=&quot;font-size: 24px;&quot;&gt;*&lt;/font&gt;" style="text;strokeColor=none;fillColor=none;html=1;align=center;verticalAlign=middle;whiteSpace=wrap;rounded=0;fontSize=16;" vertex="1" parent="1">
          <mxGeometry x="-249" y="472" width="60" height="20" as="geometry" />
        </mxCell>
        <mxCell id="k4nbTpC5pqT-Kh_ewn54-175" value="&lt;font style=&quot;font-size: 24px;&quot;&gt;*&lt;/font&gt;" style="text;strokeColor=none;fillColor=none;html=1;align=center;verticalAlign=middle;whiteSpace=wrap;rounded=0;fontSize=16;" vertex="1" parent="1">
          <mxGeometry x="-4" y="622" width="60" height="20" as="geometry" />
        </mxCell>
        <mxCell id="k4nbTpC5pqT-Kh_ewn54-176" value="&lt;font style=&quot;font-size: 24px;&quot;&gt;*&lt;/font&gt;" style="text;strokeColor=none;fillColor=none;html=1;align=center;verticalAlign=middle;whiteSpace=wrap;rounded=0;fontSize=16;" vertex="1" parent="1">
          <mxGeometry x="-156" y="407" width="60" height="20" as="geometry" />
        </mxCell>
        <mxCell id="k4nbTpC5pqT-Kh_ewn54-178" value="&lt;font style=&quot;font-size: 24px;&quot;&gt;*&lt;/font&gt;" style="text;strokeColor=none;fillColor=none;html=1;align=center;verticalAlign=middle;whiteSpace=wrap;rounded=0;fontSize=16;" vertex="1" parent="1">
          <mxGeometry x="52" y="642" width="60" height="20" as="geometry" />
        </mxCell>
        <mxCell id="k4nbTpC5pqT-Kh_ewn54-179" value="1" style="text;strokeColor=none;fillColor=none;html=1;align=center;verticalAlign=middle;whiteSpace=wrap;rounded=0;fontSize=16;" vertex="1" parent="1">
          <mxGeometry x="124" y="656" width="60" height="30" as="geometry" />
        </mxCell>
        <mxCell id="k4nbTpC5pqT-Kh_ewn54-180" value="1" style="text;strokeColor=none;fillColor=none;html=1;align=center;verticalAlign=middle;whiteSpace=wrap;rounded=0;fontSize=16;" vertex="1" parent="1">
          <mxGeometry x="-424" y="632" width="60" height="30" as="geometry" />
        </mxCell>
        <mxCell id="k4nbTpC5pqT-Kh_ewn54-181" value="&lt;font style=&quot;font-size: 24px;&quot;&gt;*&lt;/font&gt;" style="text;strokeColor=none;fillColor=none;html=1;align=center;verticalAlign=middle;whiteSpace=wrap;rounded=0;fontSize=16;" vertex="1" parent="1">
          <mxGeometry x="-333" y="656" width="60" height="20" as="geometry" />
        </mxCell>
      </root>
    </mxGraphModel>
  </diagram>
</mxfile>
